<svg xmlns="http://www.w3.org/2000/svg" xmlns:svgjs="http://svgjs.com/svgjs" xmlns:xlink="http://www.w3.org/1999/xlink" width="288" height="288"><svg xmlns="http://www.w3.org/2000/svg" width="288" height="288" version="1.0" viewBox="0 0 980 980"><g fill="#fff" class="color000 svgShape" transform="matrix(.1 0 0 -.1 0 980)"><path d="M813 9785 c-205 -37 -376 -127 -524 -274 -155 -155 -248 -342 -279-556 -8 -59 -10 -981 -8 -3450 l3 -3370 23 -85 c48 -180 148 -348 283 -475
120 -112 235 -178 409 -233 l85 -27 1694 -3 c1365 -2 1692 0 1688 10 -88 217
-151 406 -183 555 l-17 83 -1546 2 -1546 3 -46 23 c-74 36 -125 87 -161 160
l-33 67 0 3340 0 3340 26 56 c34 72 96 134 168 168 l56 26 3340 0 3340 0 56
-26 c76 -36 129 -86 165 -156 l29 -58 3 -1546 2 -1545 102 -23 c125 -28 318
-89 445 -141 54 -22 99 -40 100 -40 2 0 2 762 1 1693 l-3 1692 -27 85 c-70
224 -188 395 -362 527 -80 60 -239 136 -346 165 l-85 23 -3390 2 c-2751 1
-3404 -1 -3462 -12z" class="color000 svgShape"/><path d="M6375 8474c-281-68-495-342-495-634 0-242 147-477 364-584 233-115 527-77 719 95 245 218 293 577 113 848-88 132-236 237-391 276-74 19-230 18-310-1zM2395 5815c-242-38-412-106-545-217-375-316-654-1065-795-2133-25-195-59-542-70-742l-7-113 1469 0 1470 0 7 148c37 782 344 1511 881 2088l94 101-137 6c-327 15-529 100-1023 430-417 279-572 358-807 413-135 32-395 41-537 19zM7050 5224c-282-24-473-61-690-133-559-187-1037-555-1363-1051-89-136-225-413-277-565-295-863-137-1783 428-2495 93-117 288-313 402-404 941-747 2245-769 3205-52 229 171 499 465 653 712 396 636 498 1449 271 2160-133 417-338 753-649 1064-482 482-1093 745-1775 764-88 2-180 2-205 0zm394-669c514-67 987-343 1302-758 594-783 520-1871-175-2568-629-630-1607-757-2371-307-730 430-1102 1267-930 2097 120 579 521 1092 1054 1352 193 93 420 161 626 188 110 14 371 12 494-4z" class="color000 svgShape"/><path d="M6860 3430 l0 -490 -490 0 -490 0 0 -325 0 -325 490 0 490 0 0 -490
0 -490 325 0 325 0 2 488 3 487 488 3 487 2 0 325 0 325 -490 0 -490 0 0 490
0 490 -325 0 -325 0 0 -490z" class="color000 svgShape"/></g></svg></svg>